<?xml version="1.0" encoding="UTF-8"?>
<svg xmlns="http://www.w3.org/2000/svg" viewBox="0 0 187.66 232.37">
  <defs>
    <style>
      .cls-1, .cls-2, .cls-3, .cls-4, .cls-5 {
        stroke: #000;
        stroke-miterlimit: 10;
      }

      .cls-1, .cls-6 {
        fill: #333;
      }

      .cls-2 {
        fill: #fbb03b;
      }

      .cls-4 {
        fill: #fff;
        stroke-width: 2px;
      }

      .cls-5 {
        fill: #666;
      }

      .cls-7 {
        fill: #f7931e;
      }
    </style>
  </defs>
  <g id="Jacket__x26__Fliege">
    <g id="Kopf">
      <g id="Körper">
        <path class="cls-4" d="M50.15,143.56c-2.71,26.38-4.51,51.47,3.64,64.62,1.39,2.23,4.85,7.83,11.38,10.31,2.73,1.04,5.04.86,9.5,1.27,9.46.86,16.78.64,19.44.54,20.45-.75,30.68-1.12,34.49-3.32,13.41-7.73,12.75-30.86,11.44-77.12-.78-27.48-3.39-35.54-9.72-40.78-8.43-6.97-20.14-6.79-33.78-6.59-14.43.22-27.5.63-36.6,9.2-4.77,4.5-6.45,9.38-9.79,41.86Z"/>
        <path class="cls-6" d="M37.52,158.55c-5.41-3.4-10.82-6.8-16.23-10.2-3.29,3.79-11.85,13.69-19.3,23.1-.96,1.21-2.44,3.13-1.85,4.55,1.19,2.88,10.13,1.85,15.25.43,4.29-1.19,13.64-4.81,22.14-17.87Z"/>
        <path d="M35.61,169.13c6.36-6.07,12.73-12.15,19.09-18.22.33-15.52.67-31.03,1-46.55-15.22,17.03-30.45,34.07-45.67,51.1,8.53,4.55,17.05,9.11,25.58,13.66Z"/>
        <path d="M107.11,219.03c-.91,5-7.68,8.63-14.4,8.39-6.75-.24-12.12-4.35-10.88-6.45.97-1.65,6.54-2.94,25.28-1.94Z"/>
        <path class="cls-6" d="M184.23,56.78c-6.43-2.17-12.86-4.35-19.29-6.52,1.07-5.27,3.9-19,7.02-31.5.4-1.6,1.06-4.13,2.66-4.6,3.23-.95,8.2,7.11,10.34,12.3,1.79,4.35,4.83,14.5-.72,30.31Z"/>
        <path d="M129.52,99.18c.81-.89,1.98-1.57,6.91-6.08,1.5-1.38,4.33-3.99,7.8-7.48,1.36-1.36,2.03-2.05,2.46-2.52,1.82-2.01,4.13-5.05,6.08-9.48,2.99-8.22,5.98-16.45,8.97-24.67l25.93,8.76c-2.23,7.17-4.4,13.1-6.13,17.52-2.88,7.38-4.71,11.98-8.09,17.68-2.81,4.73-5.59,8.35-7.6,10.77-8.67,10.69-17.35,21.37-26.02,32.06-13.6-24.42-13.37-33.2-10.3-36.56Z"/>
      </g>
      <g id="Face">
        <ellipse class="cls-1" cx="96.88" cy="75.23" rx="44.15" ry="30.83"/>
        <path class="cls-4" d="M105.68,84.34c-6.15-7.39-5.88-17.24-.7-22.42,3.62-3.62,9.32-4.64,13.94-3.33,7.64,2.16,10.39,10.1,11.21,12.61,2.83,8.63.65,18.95-4.91,25.58-12.3,14.67-42.6,13.02-54.31-2.45-4.61-6.1-7.58-15.99-4.2-24.88.47-1.24,4.44-11.72,13.31-12.61,6.69-.68,11.51,4.56,11.98,5.08,4.91,5.49,5.41,14.49,1.05,22.42"/>
        <path class="cls-2" d="M93.07,84.16c1.98-1.36,3.95-2.73,5.93-4.09,2.23,1.23,4.45,2.46,6.68,3.69-2.13,2.89-4.26,5.78-6.38,8.67-2.07-2.76-4.15-5.51-6.22-8.27Z"/>
        <circle class="cls-3" cx="81.24" cy="71.47" r="4.29"/>
        <circle class="cls-3" cx="114.61" cy="71.2" r="4.03"/>
      </g>
      <rect x="43.4" y="39.71" width="101.96" height="13.07" rx="2.8" ry="2.8"/>
      <rect x="68.23" width="57.28" height="46.25" rx="6.3" ry="6.3"/>
    </g>
    <ellipse class="cls-3" cx="98.32" cy="111.92" rx="5.08" ry="3.61"/>
    <polygon class="cls-3" points="81.42 106.07 93.24 109.6 93.24 114.33 81.42 117.77 81.42 106.07"/>
    <polygon class="cls-3" points="115.23 106.07 103.4 109.6 103.4 114.33 115.23 117.77 115.23 106.07"/>
    <path class="cls-5" d="M63.94,98.85c7.88.31,8,22.94,23.6,30.52,4.14,2.01,8.18,2.38,11.04,2.36.09,11.21.18,22.42.26,33.64-5.87,3.42-11.74,6.83-17.61,10.25-11.11-.66-22.22-1.33-33.32-1.99-1-14.87-.81-27.48-.31-37.16.55-10.74,1.57-19.33,6.83-28.12,2.81-4.69,5.77-9.64,9.51-9.5Z"/>
    <path class="cls-5" d="M130.32,99.08c-5.22-.46-9.26,20.94-29.89,30.81-4,1.91-7.57,2.89-9.99,3.42-.26,12.09-.53,24.18-.79,36.26,2.8,2.36,5.61,4.73,8.41,7.09,14.21-.47,28.42-.93,42.63-1.4-1.57-59.86-5.95-75.8-10.37-76.19Z"/>
    <circle cx="96.88" cy="142.37" r="2.5"/>
    <circle cx="96.88" cy="152.36" r="2.5"/>
    <circle cx="96.88" cy="163.09" r="2.72"/>
    <path d="M130.39,97.14c-1.2-.73-1.81-1.09-2.59-.95-4.85.89-1.29,18.63-9.91,33.95-3.36,5.98-7.69,10.01-10.77,12.46,5.14,19.45,10.28,38.89,15.42,58.34,7.03-5.34,14.07-10.69,21.1-16.03-2.48-36.29-5.02-63.13-6.18-72.88-.39-3.32-1.47-11.49-7.08-14.88Z"/>
    <path d="M57.33,102.56c1.99-1.99,6.21-6.21,9.02-5.07,5.18,2.11-2.43,19.35,5.65,35.02,3.06,5.94,7.48,9.91,11,12.46-5.25,19.45-10.5,38.89-15.75,58.34-7.19-5.34-14.37-10.69-21.56-16.03-.15-32.39,1.53-56.93,3.5-68.16.63-3.59,2.34-10.75,8.15-16.55Z"/>
    <circle class="cls-6" cx="114.44" cy="153.54" r="1.75"/>
    <circle class="cls-6" cx="121.27" cy="176.66" r="1.75"/>
    <circle class="cls-6" cx="117.94" cy="165.28" r="1.75"/>
  </g>
  <g id="Füße">
    <g>
      <rect class="cls-7" x="65.17" y="213.98" width="14.23" height="9.08"/>
      <path class="cls-7" d="M65.17,223.05c-1.82,3.02-3.65,6.04-5.47,9.06l7.36-4.53,3.42,4.53,3.42-4.53c2.45,1.6,4.91,3.19,7.36,4.79-.61-3.11-1.23-6.21-1.84-9.32h-14.23Z"/>
    </g>
    <g>
      <rect class="cls-7" x="111.15" y="213.86" width="14.23" height="9.08" transform="translate(236.54 436.79) rotate(-180)"/>
      <path class="cls-7" d="M125.39,222.93c1.82,3.02,3.65,6.04,5.47,9.06l-7.36-4.53-3.42,4.53-3.42-4.53c-2.45,1.6-4.91,3.19-7.36,4.79.61-3.11,1.23-6.21,1.84-9.32,4.74,0,9.49,0,14.23,0Z"/>
    </g>
  </g>
</svg>